<svg width="1200" height="900" viewBox="0 0 1200 900" fill="none" xmlns="http://www.w3.org/2000/svg">
  <rect width="1200" height="900" rx="48" fill="#FFFFFF"/>
  <circle cx="180" cy="176" r="160" fill="#1799F2" fill-opacity="0.16"/>
  <circle cx="1002" cy="730" r="194" fill="#D209D1" fill-opacity="0.15"/>
  <rect x="104" y="112" width="992" height="676" rx="40" fill="#FFFFFF" stroke="#D209D1" stroke-width="12"/>
  <rect x="150" y="156" width="898" height="92" rx="30" fill="#EDF7FF"/>
  <rect x="188" y="186" width="176" height="20" rx="10" fill="#1799F2"/>
  <rect x="150" y="288" width="574" height="442" rx="34" fill="#F8ECF9" stroke="#D209D1" stroke-width="10"/>
  <rect x="190" y="326" width="494" height="140" rx="28" fill="#FFFFFF"/>
  <circle cx="286" cy="396" r="48" fill="#EDF7FF" stroke="#1799F2" stroke-width="10"/>
  <path d="M268 396H304" stroke="#D209D1" stroke-width="12" stroke-linecap="round"/>
  <path d="M286 378V414" stroke="#1799F2" stroke-width="12" stroke-linecap="round"/>
  <rect x="360" y="364" width="214" height="20" rx="10" fill="#D209D1"/>
  <rect x="360" y="400" width="168" height="14" rx="7" fill="#1799F2" fill-opacity="0.75"/>
  <rect x="190" y="502" width="228" height="188" rx="28" fill="#FFFFFF"/>
  <rect x="232" y="542" width="144" height="18" rx="9" fill="#1799F2"/>
  <rect x="232" y="576" width="110" height="14" rx="7" fill="#D209D1" fill-opacity="0.75"/>
  <rect x="456" y="502" width="228" height="188" rx="28" fill="#FFFFFF"/>
  <rect x="498" y="542" width="144" height="18" rx="9" fill="#D209D1"/>
  <rect x="498" y="576" width="110" height="14" rx="7" fill="#1799F2" fill-opacity="0.75"/>
  <rect x="770" y="288" width="278" height="442" rx="34" fill="#EDF7FF" stroke="#1799F2" stroke-width="10"/>
  <path d="M874 264V224" stroke="#D209D1" stroke-width="18" stroke-linecap="round"/>
  <path d="M944 264V224" stroke="#1799F2" stroke-width="18" stroke-linecap="round"/>
  <rect x="826" y="330" width="166" height="112" rx="28" fill="#FFFFFF"/>
  <circle cx="882" cy="386" r="16" fill="#1799F2"/>
  <circle cx="936" cy="386" r="16" fill="#D209D1"/>
  <rect x="826" y="500" width="166" height="20" rx="10" fill="#1799F2"/>
  <rect x="826" y="538" width="122" height="14" rx="7" fill="#D209D1" fill-opacity="0.75"/>
  <rect x="826" y="604" width="136" height="44" rx="22" fill="#D209D1"/>
</svg>
