<svg width="320" height="320" viewBox="0 0 320 320" fill="none" xmlns="http://www.w3.org/2000/svg">
  <rect width="320" height="320" rx="40" fill="#FFFFFF"/>
  <rect x="24" y="24" width="272" height="272" rx="34" fill="url(#paint0_linear)"/>
  <circle cx="244" cy="82" r="38" fill="#D209D1" fill-opacity="0.18"/>
  <circle cx="92" cy="108" r="54" fill="#1799F2" fill-opacity="0.15"/>
  <rect x="68" y="168" width="184" height="78" rx="26" fill="#FFFFFF"/>
  <path d="M111 206C111 185.013 128.013 168 149 168H204C224.987 168 242 185.013 242 206C242 226.987 224.987 244 204 244H149C128.013 244 111 226.987 111 206Z" fill="#1799F2"/>
  <path d="M83 206C83 185.013 100.013 168 121 168H173C193.987 168 211 185.013 211 206C211 226.987 193.987 244 173 244H121C100.013 244 83 226.987 83 206Z" fill="#D209D1"/>
  <text x="54" y="72" fill="#111111" font-family="Arial, sans-serif" font-size="28" font-weight="700">Canva Pro</text>
  <text x="54" y="102" fill="#111111" fill-opacity="0.72" font-family="Arial, sans-serif" font-size="18">Creator design toolkit</text>
  <defs>
    <linearGradient id="paint0_linear" x1="46" y1="30" x2="276" y2="290" gradientUnits="userSpaceOnUse">
      <stop stop-color="#1799F2" stop-opacity="0.18"/>
      <stop offset="1" stop-color="#D209D1" stop-opacity="0.16"/>
    </linearGradient>
  </defs>
</svg>
