<svg width="1200" height="900" viewBox="0 0 1200 900" fill="none" xmlns="http://www.w3.org/2000/svg">
  <rect width="1200" height="900" rx="54" fill="#0D1729"/>
  <rect width="1200" height="900" rx="54" fill="url(#bg)"/>
  <circle cx="980" cy="176" r="156" fill="#28D7FF" fill-opacity="0.14"/>
  <circle cx="188" cy="720" r="200" fill="#35F3BC" fill-opacity="0.14"/>
  <rect x="86" y="84" width="1028" height="732" rx="42" fill="#0A1423" stroke="rgba(255,255,255,0.08)"/>
  <rect x="126" y="126" width="950" height="98" rx="28" fill="#12213A"/>
  <rect x="158" y="158" width="204" height="18" rx="9" fill="#EAF4FF"/>
  <rect x="158" y="187" width="144" height="12" rx="6" fill="#91A3BC"/>
  <rect x="898" y="150" width="146" height="46" rx="23" fill="#14385C"/>
  <rect x="126" y="256" width="332" height="520" rx="34" fill="#102036"/>
  <rect x="160" y="292" width="264" height="164" rx="28" fill="#162944"/>
  <path d="M194 404C194 350.98 236.98 308 290 308V308C343.02 308 386 350.98 386 404V404" stroke="#28D7FF" stroke-width="24" stroke-linecap="round"/>
  <circle cx="290" cy="398" r="60" fill="#35F3BC"/>
  <rect x="160" y="490" width="132" height="18" rx="9" fill="#EAF4FF"/>
  <rect x="160" y="521" width="216" height="14" rx="7" fill="#92A3BD"/>
  <rect x="160" y="565" width="236" height="16" rx="8" fill="#1A2C46"/>
  <rect x="160" y="595" width="198" height="16" rx="8" fill="#1A2C46"/>
  <rect x="160" y="625" width="110" height="46" rx="23" fill="#28D7FF"/>
  <rect x="492" y="256" width="584" height="238" rx="34" fill="#102036"/>
  <rect x="528" y="294" width="170" height="18" rx="9" fill="#EAF4FF"/>
  <rect x="528" y="326" width="286" height="14" rx="7" fill="#92A3BD"/>
  <rect x="528" y="374" width="514" height="78" rx="28" fill="#162944"/>
  <path d="M578 432L640 382L710 408L786 360L858 392L930 332L992 360" stroke="#35F3BC" stroke-width="18" stroke-linecap="round" stroke-linejoin="round"/>
  <rect x="492" y="526" width="276" height="250" rx="34" fill="#102036"/>
  <rect x="524" y="562" width="118" height="18" rx="9" fill="#EAF4FF"/>
  <rect x="524" y="596" width="210" height="14" rx="7" fill="#92A3BD"/>
  <rect x="524" y="640" width="86" height="86" rx="24" fill="#35F3BC" fill-opacity="0.18"/>
  <path d="M554 696L580 670L604 690L638 648" stroke="#7AF7D4" stroke-width="16" stroke-linecap="round" stroke-linejoin="round"/>
  <rect x="800" y="526" width="276" height="250" rx="34" fill="#102036"/>
  <rect x="832" y="562" width="156" height="18" rx="9" fill="#EAF4FF"/>
  <rect x="832" y="596" width="198" height="14" rx="7" fill="#92A3BD"/>
  <rect x="832" y="640" width="212" height="32" rx="16" fill="#162944"/>
  <rect x="832" y="688" width="168" height="36" rx="18" fill="#FFBF47"/>
  <defs>
    <linearGradient id="bg" x1="88" y1="88" x2="1086" y2="804" gradientUnits="userSpaceOnUse">
      <stop stop-color="#102039"/>
      <stop offset="1" stop-color="#0A111D"/>
    </linearGradient>
  </defs>
</svg>
