<svg width="1200" height="900" viewBox="0 0 1200 900" fill="none" xmlns="http://www.w3.org/2000/svg">
  <rect width="1200" height="900" rx="54" fill="#10192C"/>
  <rect width="1200" height="900" rx="54" fill="url(#bg)"/>
  <circle cx="248" cy="165" r="160" fill="#9D82FF" fill-opacity="0.16"/>
  <circle cx="962" cy="736" r="198" fill="#28D7FF" fill-opacity="0.14"/>
  <rect x="90" y="88" width="1020" height="724" rx="42" fill="#0A1423" stroke="rgba(255,255,255,0.08)"/>
  <rect x="124" y="124" width="952" height="88" rx="28" fill="#12213A"/>
  <rect x="154" y="154" width="164" height="14" rx="7" fill="#EAF4FF"/>
  <rect x="154" y="180" width="108" height="12" rx="6" fill="#91A3BC"/>
  <rect x="126" y="246" width="590" height="530" rx="34" fill="#102036"/>
  <rect x="160" y="282" width="522" height="148" rx="30" fill="#172945"/>
  <circle cx="262" cy="356" r="62" fill="#9D82FF" fill-opacity="0.26"/>
  <rect x="350" y="314" width="216" height="18" rx="9" fill="#EAF4FF"/>
  <rect x="350" y="347" width="176" height="14" rx="7" fill="#92A3BD"/>
  <rect x="350" y="384" width="120" height="40" rx="20" fill="#28D7FF"/>
  <rect x="160" y="466" width="246" height="270" rx="28" fill="#162944"/>
  <path d="M237 573C237 531.578 270.578 498 312 498V498C353.422 498 387 531.578 387 573V622C387 663.422 353.422 697 312 697V697C270.578 697 237 663.422 237 622V573Z" fill="#7CFFEA"/>
  <rect x="440" y="466" width="242" height="270" rx="28" fill="#162944"/>
  <rect x="474" y="504" width="176" height="18" rx="9" fill="#EAF4FF"/>
  <rect x="474" y="536" width="132" height="14" rx="7" fill="#92A3BD"/>
  <rect x="474" y="588" width="118" height="38" rx="19" fill="#FFBF47"/>
  <rect x="750" y="246" width="326" height="530" rx="34" fill="#102036"/>
  <rect x="786" y="284" width="254" height="188" rx="30" fill="#162944"/>
  <path d="M876 256V222" stroke="#9D82FF" stroke-width="18" stroke-linecap="round"/>
  <path d="M950 256V222" stroke="#28D7FF" stroke-width="18" stroke-linecap="round"/>
  <rect x="838" y="318" width="152" height="108" rx="28" fill="#0E1A2D" stroke="#314A76"/>
  <circle cx="892" cy="372" r="18" fill="#7CFFEA"/>
  <circle cx="936" cy="372" r="18" fill="#FFBF47"/>
  <rect x="786" y="510" width="254" height="34" rx="17" fill="#162944"/>
  <rect x="786" y="564" width="198" height="34" rx="17" fill="#162944"/>
  <rect x="786" y="618" width="176" height="46" rx="23" fill="#9D82FF"/>
  <defs>
    <linearGradient id="bg" x1="90" y1="90" x2="1090" y2="806" gradientUnits="userSpaceOnUse">
      <stop stop-color="#12233E"/>
      <stop offset="1" stop-color="#0A111D"/>
    </linearGradient>
  </defs>
</svg>
