<svg width="1200" height="900" viewBox="0 0 1200 900" fill="none" xmlns="http://www.w3.org/2000/svg">
  <rect width="1200" height="900" rx="54" fill="#101B2E"/>
  <rect width="1200" height="900" rx="54" fill="url(#bg)"/>
  <circle cx="223" cy="194" r="160" fill="#28D7FF" fill-opacity="0.15"/>
  <circle cx="1010" cy="726" r="190" fill="#FFBF47" fill-opacity="0.16"/>
  <rect x="74" y="74" width="1052" height="752" rx="42" fill="#0A1423" stroke="rgba(255,255,255,0.08)"/>
  <rect x="116" y="116" width="968" height="90" rx="28" fill="#12213A"/>
  <rect x="146" y="143" width="112" height="36" rx="18" fill="#1B7FFF"/>
  <rect x="286" y="144" width="258" height="14" rx="7" fill="#EAF4FF" fill-opacity="0.92"/>
  <rect x="286" y="167" width="182" height="12" rx="6" fill="#A4B2C8" fill-opacity="0.66"/>
  <rect x="938" y="138" width="116" height="42" rx="21" fill="#1A2C46"/>
  <rect x="146" y="240" width="296" height="472" rx="34" fill="#112035"/>
  <rect x="176" y="272" width="236" height="166" rx="28" fill="#172A46"/>
  <rect x="198" y="294" width="192" height="18" rx="9" fill="#D8E8FF"/>
  <rect x="198" y="327" width="141" height="14" rx="7" fill="#90A5C4"/>
  <rect x="198" y="377" width="112" height="112" rx="28" fill="#28D7FF" fill-opacity="0.18"/>
  <path d="M231 430C231 408.461 248.461 391 270 391H289.5C311.039 391 328.5 408.461 328.5 430V450C328.5 471.539 311.039 489 289.5 489H270C248.461 489 231 471.539 231 450V430Z" fill="#7CF7FF"/>
  <rect x="198" y="518" width="192" height="18" rx="9" fill="#EAF4FF"/>
  <rect x="198" y="548" width="164" height="14" rx="7" fill="#92A3BD"/>
  <rect x="198" y="590" width="116" height="48" rx="24" fill="#FFBF47"/>
  <rect x="474" y="240" width="580" height="210" rx="34" fill="#112035"/>
  <rect x="510" y="284" width="182" height="22" rx="11" fill="#EAF4FF"/>
  <rect x="510" y="319" width="278" height="14" rx="7" fill="#8FA4C2"/>
  <rect x="510" y="372" width="166" height="46" rx="23" fill="#28D7FF"/>
  <rect x="474" y="482" width="274" height="230" rx="34" fill="#112035"/>
  <rect x="506" y="520" width="110" height="110" rx="28" fill="#FFBF47" fill-opacity="0.18"/>
  <rect x="638" y="520" width="78" height="18" rx="9" fill="#EAF4FF"/>
  <rect x="638" y="552" width="94" height="14" rx="7" fill="#92A3BD"/>
  <rect x="638" y="599" width="72" height="36" rx="18" fill="#1A2C46"/>
  <rect x="780" y="482" width="274" height="230" rx="34" fill="#112035"/>
  <rect x="812" y="520" width="210" height="18" rx="9" fill="#EAF4FF"/>
  <rect x="812" y="552" width="164" height="14" rx="7" fill="#92A3BD"/>
  <rect x="812" y="598" width="178" height="72" rx="28" fill="#172A46"/>
  <path d="M847 633H955" stroke="#28D7FF" stroke-width="22" stroke-linecap="round"/>
  <path d="M901 579V687" stroke="#FFBF47" stroke-width="22" stroke-linecap="round"/>
  <defs>
    <linearGradient id="bg" x1="84" y1="86" x2="1070" y2="818" gradientUnits="userSpaceOnUse">
      <stop stop-color="#13233C"/>
      <stop offset="1" stop-color="#0B1220"/>
    </linearGradient>
  </defs>
</svg>
