<svg width="1200" height="900" viewBox="0 0 1200 900" fill="none" xmlns="http://www.w3.org/2000/svg">
  <rect width="1200" height="900" rx="54" fill="#0E182B"/>
  <rect width="1200" height="900" rx="54" fill="url(#bg)"/>
  <circle cx="1016" cy="180" r="154" fill="#FFBF47" fill-opacity="0.15"/>
  <circle cx="190" cy="726" r="188" fill="#28D7FF" fill-opacity="0.14"/>
  <rect x="96" y="92" width="1008" height="716" rx="42" fill="#0A1423" stroke="rgba(255,255,255,0.08)"/>
  <rect x="130" y="126" width="942" height="90" rx="28" fill="#12213A"/>
  <rect x="160" y="156" width="178" height="14" rx="7" fill="#EAF4FF"/>
  <rect x="160" y="182" width="122" height="12" rx="6" fill="#91A3BC"/>
  <rect x="130" y="246" width="388" height="528" rx="34" fill="#102036"/>
  <rect x="166" y="282" width="316" height="454" rx="38" fill="#162944"/>
  <rect x="274" y="314" width="100" height="10" rx="5" fill="#EAF4FF"/>
  <rect x="206" y="348" width="236" height="280" rx="30" fill="#0F1A2C"/>
  <rect x="236" y="382" width="176" height="56" rx="18" fill="#13253E"/>
  <rect x="236" y="460" width="176" height="56" rx="18" fill="#13253E"/>
  <rect x="236" y="538" width="176" height="56" rx="18" fill="#13253E"/>
  <rect x="268" y="399" width="112" height="22" rx="11" fill="#28D7FF"/>
  <rect x="268" y="477" width="112" height="22" rx="11" fill="#FFBF47"/>
  <rect x="268" y="555" width="112" height="22" rx="11" fill="#35F3BC"/>
  <circle cx="324" cy="676" r="24" fill="#2C3F5E"/>
  <rect x="552" y="246" width="520" height="220" rx="34" fill="#102036"/>
  <rect x="588" y="286" width="196" height="18" rx="9" fill="#EAF4FF"/>
  <rect x="588" y="320" width="244" height="14" rx="7" fill="#92A3BD"/>
  <rect x="588" y="374" width="448" height="56" rx="28" fill="#162944"/>
  <path d="M634 402H719" stroke="#28D7FF" stroke-width="18" stroke-linecap="round"/>
  <path d="M765 402H850" stroke="#FFBF47" stroke-width="18" stroke-linecap="round"/>
  <path d="M896 402H981" stroke="#35F3BC" stroke-width="18" stroke-linecap="round"/>
  <rect x="552" y="500" width="242" height="274" rx="34" fill="#102036"/>
  <rect x="586" y="538" width="174" height="18" rx="9" fill="#EAF4FF"/>
  <rect x="586" y="572" width="142" height="14" rx="7" fill="#92A3BD"/>
  <rect x="586" y="622" width="96" height="96" rx="26" fill="#28D7FF" fill-opacity="0.18"/>
  <path d="M615 668L642 640L668 666" stroke="#88F0FF" stroke-width="16" stroke-linecap="round" stroke-linejoin="round"/>
  <rect x="830" y="500" width="242" height="274" rx="34" fill="#102036"/>
  <rect x="864" y="538" width="168" height="18" rx="9" fill="#EAF4FF"/>
  <rect x="864" y="572" width="126" height="14" rx="7" fill="#92A3BD"/>
  <rect x="864" y="622" width="170" height="48" rx="24" fill="#FFBF47"/>
  <rect x="864" y="686" width="142" height="18" rx="9" fill="#162944"/>
  <defs>
    <linearGradient id="bg" x1="96" y1="92" x2="1086" y2="806" gradientUnits="userSpaceOnUse">
      <stop stop-color="#12233D"/>
      <stop offset="1" stop-color="#0A111D"/>
    </linearGradient>
  </defs>
</svg>
